<svg t="1701934242594" class="icon" viewBox="0 0 1024 1024" version="1.1" xmlns="http://www.w3.org/2000/svg" p-id="92820" width="200" height="200"><path d="M512 512m-512 0a512 512 0 1 0 1024 0 512 512 0 1 0-1024 0Z" opacity=".5" p-id="92821"></path><path d="M552.421053 968.367158v-32.040421A425.903158 425.903158 0 0 0 936.313263 552.421053h32.053895A457.781895 457.781895 0 0 1 552.421053 968.367158z m-80.842106 0A457.808842 457.808842 0 0 1 55.646316 552.421053h32.040421A425.889684 425.889684 0 0 0 471.578947 936.313263v32.040421zM968.367158 471.578947h-32.053895A425.862737 425.862737 0 0 0 552.421053 87.700211v-32.053895a457.781895 457.781895 0 0 1 415.946105 415.932631z m-880.680421 0h-32.040421a457.741474 457.741474 0 0 1 415.932631-415.932631v32.053895A425.889684 425.889684 0 0 0 87.686737 471.578947z" fill="#FFFFFF" p-id="92822"></path><path d="M515.462737 829.844211l147.509895-323.988211h-295.073685z" fill="#BA2824" p-id="92823"></path><path d="M515.462737 829.844211v-323.988211h-147.509895z" fill="#D82F2A" p-id="92824"></path><path d="M515.462737 181.867789l-147.509895 323.961264h294.682947z" fill="#E0E0E0" p-id="92825"></path><path d="M515.462737 181.867789v323.961264h147.509895z" fill="#FFFFFF" p-id="92826"></path><path d="M518.736842 505.263158m-47.157895 0a47.157895 47.157895 0 1 0 94.31579 0 47.157895 47.157895 0 1 0-94.31579 0Z" fill="#FFFFFF" p-id="92827"></path></svg>