<svg t="1701767780632" class="icon" viewBox="0 0 1024 1024" version="1.1" xmlns="http://www.w3.org/2000/svg" p-id="13442" width="200" height="200"><path d="M946.688 269.312l-88.576-151.04c-5.632-9.728-16.384-15.872-27.648-15.872h-0.512c-11.264 0-22.016 6.656-27.648 16.384l-83.968 151.04c-8.704 15.36-3.072 34.816 12.288 43.52 5.12 2.56 10.24 4.096 15.36 4.096 11.264 0 22.016-6.144 28.16-16.384l25.6-46.08v509.952c0 17.92-14.336 32.768-32.256 33.792-13.824-39.936-51.712-69.12-96.256-69.12-44.544 0-82.432 28.672-96.256 69.12-17.408-1.536-31.232-16.384-31.232-33.792v-506.88c0-53.248-42.496-96.768-95.744-97.792-13.312-40.448-51.712-70.144-96.768-70.144-45.056 0-83.456 29.184-96.768 70.144-54.272 0-98.304 44.032-98.304 98.304v314.368c-40.448 13.312-70.144 51.712-70.144 96.768s29.184 83.456 70.144 96.768v126.464c0 17.92 14.336 31.744 32.256 31.744s32.256-14.336 32.256-31.744v-126.464c40.448-13.312 70.144-51.712 70.144-96.768s-29.184-83.456-70.144-96.768V257.536c0-18.944 15.36-34.304 34.304-34.304 13.312 40.448 51.712 70.144 96.768 70.144 45.056 0 82.944-29.184 96.768-69.632 17.92 1.024 31.744 15.872 31.744 33.792v506.88c0 52.736 41.984 95.744 94.208 97.792 13.312 40.96 51.712 71.168 97.28 71.168s83.968-29.696 97.28-71.168c52.736-1.536 95.232-44.544 95.232-97.792V254.976l27.648 46.592c8.704 15.36 28.672 20.48 44.032 11.264 14.336-8.704 19.456-28.16 10.752-43.52zM188.416 706.56c-20.992 0-37.888-16.896-37.888-37.888 0-20.992 16.896-37.888 37.888-37.888s37.888 16.896 37.888 37.888c0 20.992-16.896 37.888-37.888 37.888z m163.328-477.184c-20.992 0-37.888-16.896-37.888-37.888s16.896-37.888 37.888-37.888 37.888 16.896 37.888 37.888-17.408 37.888-37.888 37.888z m319.488 640.512c-20.992 0-37.888-16.896-37.888-37.888 0-20.992 16.896-37.888 37.888-37.888 20.992 0 37.888 16.896 37.888 37.888 0 20.48-16.896 37.888-37.888 37.888z" fill="RGB(51,144,253)" p-id="13443"></path></svg>