<svg t="1701918745414" class="icon" viewBox="0 0 1194 1024" version="1.1" xmlns="http://www.w3.org/2000/svg" p-id="47774" width="200" height="200"><path d="M88.134424 1023.99744a104.345015 104.345015 0 0 1-25.169076-2.900842 102.38268 102.38268 0 0 1-37.796272-18.940796 63.221305 63.221305 0 0 1-25.169076-48.973049 60.405781 60.405781 0 0 1 3.327437-18.514201l130.452599-395.197146a83.612522 83.612522 0 0 1 28.837788-39.929245 91.205904 91.205904 0 0 1 55.969198-18.087607h158.949111c-15.357402-15.613359-30.970761-30.885442-44.96306-45.304336a520.445291 520.445291 0 0 1-79.858491-89.755483 219.013617 219.013617 0 0 1-27.984599-107.07522 254.591598 254.591598 0 0 1 266.792201-238.89292 281.552371 281.552371 0 0 1 188.128175 69.961498 225.412534 225.412534 0 0 1 78.152113 169.187379 219.013617 219.013617 0 0 1-27.9846 107.07522 411.749012 411.749012 0 0 1-77.810837 82.332738c-17.661012 16.466548-37.028403 34.12756-55.457285 52.727081h379.583787a92.912282 92.912282 0 0 1 56.310475 18.087606 84.039117 84.039117 0 0 1 28.496512 39.929246l130.793874 395.197146a59.72323 59.72323 0 0 1 2.815524 18.514201 64.842364 64.842364 0 0 1-24.657162 48.973049 99.055243 99.055243 0 0 1-62.965349 21.841638z m105.795436-126.357291a298.616151 298.616151 0 0 0 18.855477 80.71168s0.511913 0.853189 0.511914 1.621059h893.715479a65.439596 65.439596 0 0 0 12.029965-1.621059 42.147537 42.147537 0 0 0 17.661013-8.53189 21.585682 21.585682 0 0 0 8.958484-16.466548 14.248256 14.248256 0 0 0-1.194464-5.801685l-130.452599-395.197146a39.929245 39.929245 0 0 0-13.651024-18.514201 38.052229 38.052229 0 0 0-24.145249-7.849339H656.614256a54.604096 54.604096 0 0 0 14.504213 40.35584 20.903131 20.903131 0 0 1-1.706378 31.312036 27.984599 27.984599 0 0 1-34.980749-1.621059 97.434184 97.434184 0 0 1-27.13141-69.961498h-36.687127a27.813961 27.813961 0 0 1-11.859327-2.900843 209.713857 209.713857 0 0 0-43.342002 77.384243 24.05993 24.05993 0 0 1-22.182914 17.06378 25.59567 25.59567 0 0 1-24.8278-13.9923 356.206408 356.206408 0 0 0-59.72323-87.707829 23.462698 23.462698 0 0 1-20.13526 9.896992H218.587022a40.867753 40.867753 0 0 0-24.315886 7.849339 38.8201 38.8201 0 0 0-13.139111 18.940796L50.167513 947.807663a28.325875 28.325875 0 0 0-1.194464 5.801685 21.244406 21.244406 0 0 0 9.470398 16.466547 42.147537 42.147537 0 0 0 17.661012 8.531891 55.457285 55.457285 0 0 0 12.029965 1.621059h73.630211a319.263325 319.263325 0 0 1-17.06378-79.431896 22.609509 22.609509 0 0 1 22.694827-23.462698h1.706378a23.889292 23.889292 0 0 1 24.913119 20.13526z m79.858491-658.235315a176.951399 176.951399 0 0 0 23.036103 87.281235 524.45528 524.45528 0 0 0 72.179789 79.858491 966.236545 966.236545 0 0 1 119.446461 134.20663 674.019312 674.019312 0 0 1 128.831539-142.823839 401.85202 401.85202 0 0 0 68.852353-71.241282 176.951399 176.951399 0 0 0 23.036103-87.281235 184.715419 184.715419 0 0 0-63.818538-137.875343 227.801464 227.801464 0 0 0-153.57402-57.248982 207.580884 207.580884 0 0 0-217.98979 194.783049z m354.926625 610.54205h-3.839351a532.2193 532.2193 0 0 1-97.946097-18.087607 20.988449 20.988449 0 0 1-16.466548-26.36354 25.59567 25.59567 0 0 1 30.970761-14.418894 564.555163 564.555163 0 0 0 87.62251 16.039953h3.668713a23.206741 23.206741 0 0 1 22.694827 23.462698 23.889292 23.889292 0 0 1-24.657162 19.793984c-0.853189-0.255957-1.365102-0.597232-2.047653-0.597232z m75.677864-20.561855a22.438871 22.438871 0 0 1 20.647174-24.742481 309.878246 309.878246 0 0 0 86.001451-24.742481 26.278221 26.278221 0 0 1 33.018415 9.470398 19.793985 19.793985 0 0 1-10.8355 28.837788 357.400873 357.400873 0 0 1-100.335027 28.837788 13.139111 13.139111 0 0 1-4.180626 0 23.803973 23.803973 0 0 1-24.315887-17.916969z m-532.731213-7.422744a21.159087 21.159087 0 0 1-13.992299-27.9846 159.03443 159.03443 0 0 1 26.790134-39.929245 102.979913 102.979913 0 0 1 61.34429-28.411194 24.145249 24.145249 0 0 1 27.984599 18.087607 21.841638 21.841638 0 0 1-20.647174 24.315887 51.703254 51.703254 0 0 0-30.800123 13.992299 85.3189 85.3189 0 0 0-18.514201 27.558005 24.8278 24.8278 0 0 1-23.036103 13.9923 25.083757 25.083757 0 0 1-9.129123-1.877016z m261.161154-17.661013c-35.492662-10.664863-64.671726-19.793985-92.31505-26.36354a21.415044 21.415044 0 0 1-17.06378-26.36354 25.59567 25.59567 0 0 1 30.458847-15.272083c29.349702 6.99615 59.72323 16.466548 95.130574 27.558005a20.732493 20.732493 0 0 1 15.186764 27.558004 24.8278 24.8278 0 0 1-23.036103 13.9923 25.59567 25.59567 0 0 1-8.361252-1.365102z m451.592939-39.929245a19.964623 19.964623 0 0 1 2.815523-30.458847l5.375091-3.668713a31.312036 31.312036 0 0 0 14.845489-22.609509 30.629485 30.629485 0 0 0-8.53189-18.940795 20.049942 20.049942 0 0 1 5.033815-30.032253 27.216729 27.216729 0 0 1 34.12756 4.521901 67.231293 67.231293 0 0 1 18.514201 44.451147 69.449585 69.449585 0 0 1-31.653312 54.774734l-5.631047 4.521902a28.752469 28.752469 0 0 1-16.125272 4.948496 26.278221 26.278221 0 0 1-18.770158-7.76402z m-54.860053-114.412645l-4.521902-1.279784c-7.508063-1.621059-22.182914-4.095307-37.796273-6.14296s-34.12756-4.948496-51.95921-8.53189a21.415044 21.415044 0 0 1-18.855477-25.595671 24.8278 24.8278 0 0 1 29.179064-16.466547c17.06378 2.900843 34.12756 5.375091 49.826238 7.849339a346.480054 346.480054 0 0 1 43.683277 7.422744l6.14296 1.621059a21.073768 21.073768 0 0 1 15.698678 27.13141 24.657162 24.657162 0 0 1-23.462697 14.845489 25.59567 25.59567 0 0 1-7.934658-1.109146z m-482.904975-408.421575a146.065957 146.065957 0 1 1 145.04213 126.357291 136.51024 136.51024 0 0 1-145.04213-126.613248z m48.973048 0a96.666314 96.666314 0 1 0 95.983763-83.185928 90.096759 90.096759 0 0 0-95.983763 82.929971z" p-id="47775" fill="RGB(51,144,253)"></path></svg>