<svg t="1701772658958" class="icon" viewBox="0 0 1024 1024" version="1.1" xmlns="http://www.w3.org/2000/svg" p-id="25757" width="200" height="200"><path d="M881 342H726c-66.3 0-120 53.7-120 120 0 26.5 21.5 48 48 48h99c22.1 0 40 17.9 40 40v52c0 22.1-17.9 40-40 40h-84c-14.4 0-26 11.6-26 26v116c0 14.4 11.6 26 26 26h212c44.2 0 80-35.8 80-80V422c0-44.2-35.8-80-80-80z" fill="RGB(51,144,253)" p-id="25758"></path><path d="M613.5 261h38c16.9 0 26.2-19.6 15.5-32.7L538.8 71.6c-10-12.2-28.6-12.2-38.6 0L372 228.4c-10.7 13.1-1.4 32.7 15.5 32.7h38c5.5 0 10 4.5 10 10v666c0 14.4 11.6 26 26 26h116c14.4 0 26-11.6 26-26V271c0-5.5 4.5-10 10-10zM368 643.3h-99c-5.5 0-10-4.5-10-10v-38c0-16.9-19.6-26.2-32.7-15.5L70.6 707.1c-12.7 10.4-12.7 29.9 0 40.3l155.7 127.3c13.1 10.7 32.7 1.4 32.7-15.5v-38c0-5.5 4.5-10 10-10h99c14.4 0 26-11.6 26-26v-116c0-14.3-11.6-25.9-26-25.9z" fill="RGB(51,144,253)" p-id="25759"></path></svg>