<svg t="1701920223426" class="icon" viewBox="0 0 1024 1024" version="1.1" xmlns="http://www.w3.org/2000/svg" p-id="51105" width="200" height="200"><path d="M920.576 710.656h-83.456c-10.752-43.52-45.056-77.824-88.576-88.576v-317.44h116.224c15.872 0 28.672-12.8 28.672-28.672 0-15.872-12.8-28.672-28.672-28.672h-116.224V125.44c-0.512-15.36-12.8-27.648-28.16-28.16-15.872 0-29.184 12.288-29.184 28.16v122.368H494.592L377.344 365.056H164.864c-15.872 0-28.672 12.8-28.672 28.672 0 15.872 12.8 28.672 28.672 28.672H230.4v288.256H102.4c-15.872 0.512-28.16 13.312-28.16 29.184 0.512 15.872 13.312 28.16 29.184 28.16H230.4v129.536c0 15.872 12.8 28.672 28.672 28.672 15.872 0 28.672-12.8 28.672-28.672V768h314.368c12.8 53.248 60.416 92.16 117.248 92.16 56.832 0 104.448-39.424 117.248-92.16H921.6c15.872-0.512 28.16-13.312 28.16-29.184s-13.312-28.16-29.184-28.16z m-318.464 0H287.744V422.4h113.664l117.248-117.248h172.032v317.44c-43.52 10.24-77.824 44.544-88.576 88.064z m117.248 92.672c-35.328 0-63.488-28.16-63.488-63.488s28.16-63.488 63.488-63.488 63.488 28.16 63.488 63.488c0.512 34.816-28.16 63.488-63.488 63.488z m117.76-92.16z" fill="RGB(51,144,253)" p-id="51106"></path></svg>