<?xml version="1.0" encoding="utf-8"?>
<svg version="1.1" xmlns:xlink="http://www.w3.org/1999/xlink" width="40px" height="45px" xmlns="http://www.w3.org/2000/svg">
  <defs>
    <filter x="897px" y="381px" width="40px" height="45px" filterUnits="userSpaceOnUse" id="filter186">
      <feOffset dx="1" dy="1" in="SourceAlpha" result="shadowOffsetInner" />
      <feGaussianBlur stdDeviation="2.5" in="shadowOffsetInner" result="shadowGaussian" />
      <feComposite in2="shadowGaussian" operator="atop" in="SourceAlpha" result="shadowComposite" />
      <feColorMatrix type="matrix" values="0 0 0 0 0  0 0 0 0 0  0 0 0 0 0  0 0 0 0.698039215686274 0  " in="shadowComposite" />
    </filter>
    <g id="widget187">
 
      <path d="M 916 420  C 910 411.25  901 406  901 397.25  C 901 392.7  904 385  916 385  C 928 385  931 392.7  931 397.25  C 931 406  922 411.25  916 420  Z M 916 418.236537938674  C 921.6 410.164792577646  930 405.321745361029  930 397.25  C 930 393.071428571429  927.2 386  916 386  C 904.8 386  902 393.071428571429  902 397.25  C 902 405.321745361029  910.4 410.164792577646  916 418.236537938674  Z " fill-rule="nonzero" fill="#ffffff" stroke="none" />
    </g>
  </defs>
  <g transform="matrix(1 0 0 1 -897 -381 )">
    <use xlink:href="#widget187" filter="url(#filter186)" />
    <use xlink:href="#widget187" />
  </g>
</svg>