<svg t="1701927318382" class="icon" viewBox="0 0 1024 1024" version="1.1" xmlns="http://www.w3.org/2000/svg" p-id="64868" width="200" height="200"><path d="M477.952 64c75.136 0.192 136.064 61.824 136.32 137.856V270.72h204.416c75.2 0.192 136.064 61.76 136.32 137.792v482.496h34.048a33.984 33.984 0 0 1 30.208 16.96 34.816 34.816 0 0 1 0 35.008 33.984 33.984 0 0 1-30.208 16.96H34.944a33.984 33.984 0 0 1-30.208-16.96 34.816 34.816 0 0 1 0-35.008 33.984 33.984 0 0 1 30.208-16.96h34.112V201.792c0.192-75.968 61.056-137.6 136.32-137.792z m-34.112 620.288H239.36a34.304 34.304 0 0 0-33.216 34.496c0 18.688 14.72 33.92 33.28 34.432h204.416a33.984 33.984 0 0 0 30.208-16.96 34.816 34.816 0 0 0 0-35.008 33.984 33.984 0 0 0-30.208-16.96z m340.864 0h-68.16a33.984 33.984 0 0 0-30.208 16.96 34.816 34.816 0 0 0 0 35.008c6.272 10.752 17.792 17.28 30.208 16.96h68.16a33.984 33.984 0 0 0 30.208-16.96 34.816 34.816 0 0 0 0-35.008 33.984 33.984 0 0 0-30.208-16.96z m-340.864-206.72H239.36A34.304 34.304 0 0 0 206.144 512c0 18.688 14.72 33.984 33.28 34.432h204.416a33.984 33.984 0 0 0 30.208-16.96 34.816 34.816 0 0 0 0-34.944 33.984 33.984 0 0 0-30.208-17.024z m340.864 0h-68.16a33.984 33.984 0 0 0-30.208 16.96 34.816 34.816 0 0 0 0 34.944c6.272 10.816 17.792 17.28 30.208 16.96h68.16a33.984 33.984 0 0 0 30.208-16.96 34.816 34.816 0 0 0 0-34.944 33.984 33.984 0 0 0-30.208-17.024zM443.84 270.72H239.36a34.304 34.304 0 0 0-33.216 34.432c0 18.688 14.72 33.984 33.28 34.496h204.416a33.984 33.984 0 0 0 30.208-17.024 34.816 34.816 0 0 0 0-34.944 33.984 33.984 0 0 0-30.208-16.96z" fill="RGB(51,144,253)" p-id="64869"></path></svg>